<svg width="73" height="70" viewBox="0 0 73 70" xmlns="http://www.w3.org/2000/svg" xmlns:xlink="http://www.w3.org/1999/xlink" fill="none" overflow="hidden"><path d="M64.5386 13.0644 59.86 8.35322 53.9205 14.3675 58.5991 19.0788 64.5386 13.0644ZM39.8182 10.0239 33.1818 10.0239 33.1818-1.50026e-06 39.8182-9.20094e-07 39.8182 10.0239ZM73 40.0955 63.0455 40.0955 63.0455 33.4129 73 33.4129 73 40.0955ZM33.1818 63.3174 33.1818 50.0859 29.8636 48.148C25.7491 45.7422 23.2273 41.3317 23.2273 36.5871 23.2273 29.2029 29.1668 23.222 36.5 23.222 43.8332 23.222 49.7727 29.2029 49.7727 36.5871 49.7727 41.3317 47.2177 45.7422 43.1364 48.148L39.8182 50.0859 39.8182 63.3174 33.1818 63.3174ZM26.5455 70 46.4545 70 46.4545 53.9284C52.3941 50.4535 56.4091 44.0048 56.4091 36.5871 56.4091 25.5274 47.4832 16.5394 36.5 16.5394 25.5168 16.5394 16.5909 25.5274 16.5909 36.5871 16.5909 44.0048 20.6059 50.4535 26.5455 53.9284L26.5455 70ZM9.95455 40.0955 4.04485e-06 40.0955 4.62906e-06 33.4129 9.95455 33.4129 9.95455 40.0955ZM19.1127 14.3341 13.1732 8.3198 8.49455 13.031 14.4673 19.0119 19.1127 14.3341Z" fill="#FFFFFF"/></svg>